<svg width="36" height="36" fill="none" xmlns="http://www.w3.org/2000/svg"><circle cx="18" cy="18" r="18" fill="#456550"/><path d="M29.389 14.433c-.017-.02-.032-.04-.053-.06l-.911-.878c.755-.172 1.569-.805 1.569-1.454 0-.757-1.05-1.026-1.947-1.026-.937 0-1.045.642-1.057 1.096l-2.35-2.266C24.162 9.372 23.256 9 22.58 9h-9.16c-.676 0-1.582.372-2.06.845L9.01 12.11c-.012-.454-.12-1.096-1.057-1.096-.897 0-1.947.269-1.947 1.025 0 .65.814 1.283 1.57 1.455l-.911.879c-.021.02-.035.039-.053.06C5.637 15.265 5 16.81 5 17.932v3.332c0 .808.319 1.542.834 2.09v1.291c0 .756.633 1.372 1.41 1.372H8.95c.778 0 1.41-.615 1.41-1.372v-.33h15.28v.33c0 .757.631 1.372 1.41 1.372h1.705c.779 0 1.41-.616 1.41-1.372v-1.292a3.037 3.037 0 0 0 .835-2.09v-3.331c0-1.122-.636-2.667-1.611-3.5zm-17.165-3.581c.33-.276.908-.485 1.196-.485h9.16c.288 0 .866.21 1.197.485l3.082 2.987H9.142l3.082-2.987zm-6.166 6.577c0-.82.642-1.487 1.434-1.487.793 0 3.382 1.52 3.382 2.34 0 .82-2.59.63-3.382.63-.792 0-1.434-.662-1.434-1.483zm4.303 5.426h-.547l-1.621.003c-.45-.14-.767-.304-.992-.48-.113-.088-.2-.18-.268-.272a1.067 1.067 0 0 1-.151-.276c-.202-.57.215-1.093.215-1.093h2.767l1.844 2.117h-1.247zm11.617 0h-7.955c-.83 0-1.503-.672-1.503-1.501h10.962c0 .83-.673 1.502-1.503 1.502zm.35-2.527h-8.655c-.902 0-1.634-1.112-1.634-2.483h11.923c0 1.372-.732 2.483-1.634 2.483zm6.891 1.503a1.074 1.074 0 0 1-.151.275 1.376 1.376 0 0 1-.269.273c-.223.175-.541.34-.991.479l-1.622-.003h-1.795l1.846-2.117h2.766s.417.522.216 1.093zm-.71-2.918c-.793 0-3.382.189-3.382-.63 0-.82 2.59-2.34 3.381-2.34.793 0 1.435.665 1.435 1.486 0 .82-.642 1.484-1.435 1.484z" fill="#fff"/></svg>