<svg width="36" height="36" fill="none" xmlns="http://www.w3.org/2000/svg"><circle cx="18" cy="18" r="18" fill="#456550"/><path d="M17.842 8C12.98 8 9 8.553 9 12.421v10.5c0 2.1 1.768 3.869 3.868 3.869l-1.658 1.657V29h13.264v-.553l-1.658-1.657c2.1 0 3.868-1.769 3.868-3.869v-10.5C26.684 8.553 22.705 8 17.842 8zm-4.974 16.579c-.884 0-1.658-.774-1.658-1.658 0-.884.774-1.658 1.658-1.658.885 0 1.658.774 1.658 1.658 0 .884-.773 1.658-1.658 1.658zm3.869-6.632H11.21v-5.526h5.526v5.526zm6.079 6.632c-.884 0-1.658-.774-1.658-1.658 0-.884.774-1.658 1.658-1.658.884 0 1.658.774 1.658 1.658 0 .884-.774 1.658-1.658 1.658zm1.658-6.632h-5.527v-5.526h5.527v5.526z" fill="#fff"/></svg>